HIERARCHY
ROOT joint_0
{
	OFFSET 0.000000 0.000000 0.000000
	CHANNELS 6 Xposition Yposition Zposition Zrotation Yrotation Xrotation 
	JOINT joint_1
	{
		OFFSET 1.363060 -1.794630 0.839290
		CHANNELS 3 Zrotation Yrotation Xrotation
		JOINT joint_2
		{
			OFFSET 2.448110 -6.726130 0.000000
			CHANNELS 3 Zrotation Yrotation Xrotation
			JOINT joint_3
			{
				OFFSET 2.562200 -7.039590 0.000000
				CHANNELS 3 Zrotation Yrotation Xrotation
				JOINT joint_4
				{
					OFFSET 0.157640 -0.433110 2.322550
					CHANNELS 3 Zrotation Yrotation Xrotation
					End Site
					{
						OFFSET 0.000000 0.000000 0.000000
					}
				}
			}
		}
	}
	JOINT joint_5
	{
		OFFSET -1.305520 -1.794630 0.839290
		CHANNELS 3 Zrotation Yrotation Xrotation
		JOINT joint_6
		{
			OFFSET -2.542530 -6.985550 0.000000
			CHANNELS 3 Zrotation Yrotation Xrotation
			JOINT joint_7
			{
				OFFSET -2.568260 -7.056230 0.000000
				CHANNELS 3 Zrotation Yrotation Xrotation
				JOINT joint_8
				{
					OFFSET -0.164730 -0.452590 2.363150
					CHANNELS 3 Zrotation Yrotation Xrotation
					End Site
					{
						OFFSET 0.000000 0.000000 0.000000
					}
				}
			}
		}
	}
	JOINT joint_9
	{
		OFFSET 0.028270 2.035590 -0.193380
		CHANNELS 3 Zrotation Yrotation Xrotation
		JOINT joint_10
		{
			OFFSET 0.056720 2.048850 -0.042750
			CHANNELS 3 Zrotation Yrotation Xrotation
			JOINT joint_11
			{
				OFFSET -0.054170 1.746240 0.172020
				CHANNELS 3 Zrotation Yrotation Xrotation
				JOINT joint_12
				{
					OFFSET 0.104070 1.761360 -0.123970
					CHANNELS 3 Zrotation Yrotation Xrotation
					End Site
					{
						OFFSET 0.000000 0.000000 0.000000
					}
				}
			}
			JOINT joint_13
			{
				OFFSET 3.362410 1.200890 -0.311210
				CHANNELS 3 Zrotation Yrotation Xrotation
				JOINT joint_14
				{
					OFFSET 4.983000 -0.000000 -0.000000
					CHANNELS 3 Zrotation Yrotation Xrotation
					JOINT joint_15
					{
						OFFSET 3.483560 -0.000000 -0.000000
						CHANNELS 3 Zrotation Yrotation Xrotation
						JOINT joint_16
						{
							OFFSET 0.000000 0.000000 0.000000
							CHANNELS 3 Zrotation Yrotation Xrotation
							End Site
							{
								OFFSET 0.000000 0.000000 0.000000
							}
						}
					}
				}
			}
			JOINT joint_17
			{
				OFFSET -3.136600 1.374050 -0.404650
				CHANNELS 3 Zrotation Yrotation Xrotation
				JOINT joint_18
				{
					OFFSET -5.241900 -0.000000 -0.000000
					CHANNELS 3 Zrotation Yrotation Xrotation
					JOINT joint_19
					{
						OFFSET -3.444170 -0.000000 -0.000000
						CHANNELS 3 Zrotation Yrotation Xrotation
						JOINT joint_20
						{
							OFFSET 0.000000 0.000000 0.000000
							CHANNELS 3 Zrotation Yrotation Xrotation
							End Site
							{
								OFFSET 0.000000 0.000000 0.000000
							}
						}
					}
				}
			}
		}
	}
}
MOTION
Frames: 16
Frame Time: 0.031667
-9.504039 13.213994 1.398569 -12.802456 78.930977 -3.364663 -0.936732 11.869693 -45.251434 -6.731400 11.732399 41.996586 -9.690981 19.317892 8.324883 0.683919 5.438511 15.109348 -4.755427 -14.481676 -20.434311 0.422127 -23.996215 74.455349 12.062846 -7.101527 -10.359005 -7.208536 -15.676066 39.734184 1.594136 -5.024883 -6.019156 -3.765588 -1.822974 -6.601406 1.280955 1.437629 11.386654 1.804696 2.585672 -28.480696 -64.694257 -67.549110 -4.919934 24.341540 -35.288982 -14.182126 14.145330 -4.185481 -0.384754 -6.721273 -0.021456 0.005771 64.323980 56.889678 24.392774 -28.869982 26.408145 -31.066911 -13.330777 -3.690382 0.042543 6.923170 -0.030897 -0.030698 
-9.044865 13.234505 1.380784 -15.252708 78.662460 -5.019760 -1.387501 11.822904 -46.475713 -6.877796 12.637487 44.127607 -9.493312 19.244035 8.468603 0.588388 5.041118 13.975655 -4.372832 -14.520557 -20.206152 0.150962 -23.698058 75.123326 12.134060 -7.175107 -10.545276 -6.690858 -15.045113 38.672068 1.423900 -4.311045 -5.885154 -3.285115 -1.763094 -6.509406 1.244674 1.437371 10.950156 2.459222 2.853827 -27.901285 -70.281157 -67.237957 2.186950 24.504563 -33.852398 -15.254148 13.826968 -3.453993 -0.589078 -6.726631 -0.018626 0.007846 65.959778 54.409491 25.128373 -29.415094 26.406068 -32.659356 -13.437244 -3.876272 -0.022617 6.924232 -0.028609 -0.027909 
-8.582102 13.253814 1.375227 -16.009581 78.725639 -5.274573 -1.900238 11.746784 -47.685487 -7.468897 13.649354 46.339025 -9.250742 19.081940 8.659632 0.500696 4.641840 12.844060 -3.987654 -14.405374 -20.064062 0.000939 -23.446620 75.915296 12.378685 -7.333815 -10.571523 -5.972193 -14.165784 37.279243 1.241390 -3.615457 -5.613808 -2.567688 -1.733561 -6.379082 1.219149 1.399006 10.444391 3.255274 3.112316 -27.171343 -74.928722 -66.564174 8.440475 24.665593 -32.358208 -16.347736 13.569062 -2.708340 -0.819142 -6.733190 -0.014983 0.010681 67.342303 51.797564 25.733266 -30.043099 26.420330 -34.454906 -13.597847 -4.185782 -0.061341 6.925474 -0.025664 -0.024382 
-8.108243 13.300405 1.390545 -14.743326 79.047958 -3.570675 -2.525734 11.498410 -48.763019 -8.153040 14.675512 48.530036 -8.990838 18.872428 8.816013 0.432744 4.300617 11.878551 -3.552393 -14.164178 -20.050805 -0.000551 -23.246271 76.812562 12.661013 -7.526954 -10.395962 -5.141541 -13.127448 35.607594 1.062074 -2.979909 -5.260412 -1.685253 -1.690792 -6.185778 1.187112 1.341742 9.931184 4.171799 3.403072 -26.354195 -78.766588 -65.669229 13.887236 24.932654 -30.806935 -17.459465 13.321644 -2.065126 -1.097542 -6.741314 -0.010705 0.014027 68.611598 49.232228 26.370779 -30.756292 26.495704 -36.452037 -13.751877 -4.526351 -0.072977 6.927215 -0.022094 -0.020195 
-7.625435 13.354099 1.398971 -12.545284 79.557106 -1.045868 -3.340471 11.067005 -49.574172 -8.869069 15.652524 50.533441 -8.796280 18.613032 8.933805 0.367578 3.947671 10.880931 -3.080898 -13.764129 -20.196309 0.040970 -23.104860 77.768512 12.897965 -7.687815 -10.144327 -4.366475 -12.141077 33.824131 0.912173 -2.445299 -4.903889 -0.806876 -1.672264 -5.978056 1.135591 1.268423 9.397050 5.241967 3.747630 -25.480413 -82.077225 -64.657841 18.686501 25.307170 -29.354572 -18.605047 13.011892 -1.523106 -1.368424 -6.753364 -0.006252 0.017778 69.825066 46.811437 27.120662 -31.527030 26.625407 -38.597530 -13.942910 -4.798447 -0.075678 6.933815 -0.018442 -0.015764 
-7.136471 13.432327 1.396847 -12.834898 80.075310 -0.522212 -4.436352 10.513348 -50.153786 -9.554544 16.536074 52.234175 -8.637424 18.421248 9.067330 0.315677 3.642883 10.014900 -2.607898 -13.149699 -20.531665 0.160314 -23.023176 78.749861 12.853959 -7.694414 -9.888875 -3.800480 -11.401257 32.435099 0.801913 -2.024494 -4.592475 -0.094739 -1.645806 -5.580435 1.063687 1.191786 8.854542 6.493762 4.081280 -24.593108 -85.113384 -63.763774 23.232051 25.750550 -28.069172 -19.750798 12.751456 -1.142838 -1.645881 -6.767742 -0.001813 0.021563 70.933016 44.897256 27.933385 -32.304670 26.734247 -40.764759 -14.224872 -4.981894 -0.088021 6.943279 -0.014866 -0.011328 
-6.670526 13.501952 1.377144 -15.472880 80.590347 -2.654320 -5.763539 9.751433 -50.460149 -10.246808 17.287967 53.724210 -8.551793 18.248251 9.204250 0.308935 3.576685 9.810487 -2.134215 -12.301941 -21.001949 0.440350 -23.060694 79.733848 12.417060 -7.658672 -9.390203 -3.528691 -11.046475 32.059123 0.698878 -1.707744 -4.244718 0.233461 -1.594600 -4.877470 0.965084 1.104127 8.213245 7.917826 4.338257 -23.681394 -88.044526 -63.259341 28.019375 26.342520 -26.862187 -20.900265 12.507888 -0.769497 -1.876660 -6.776933 0.002816 0.025129 71.896957 43.686800 28.801202 -32.957136 26.722734 -42.736698 -14.585744 -5.145105 -0.109252 6.946976 -0.011064 -0.006807 
-6.211817 13.555721 1.369746 -18.887506 81.359276 -5.776923 -6.935654 8.924346 -50.477114 -10.851771 17.859382 54.946764 -8.519585 18.243094 9.200753 0.369780 3.860043 10.567089 -1.529932 -11.368232 -21.696510 0.987924 -23.229792 80.458915 11.993618 -8.032156 -8.295758 -3.560455 -11.113596 32.926424 0.577779 -1.408321 -4.010375 -0.399224 -1.545940 -4.262588 0.830723 0.991595 7.560452 9.316658 4.468654 -22.846536 -90.693057 -62.965986 32.777173 26.790550 -25.532290 -21.817221 12.281768 -0.386949 -2.104474 -6.786948 0.007368 0.028995 72.934278 43.295272 30.073144 -33.559087 26.748047 -44.624864 -14.941490 -5.268452 -0.063571 6.953404 -0.007404 -0.002104 
-5.754084 13.606577 1.388607 -22.488663 82.385277 -9.056768 -7.888895 8.008681 -50.206277 -11.276602 18.434609 55.992325 -8.682907 18.356088 9.054863 0.510983 4.435666 12.109197 -0.823141 -10.432980 -22.703411 1.438187 -23.725195 81.151093 11.702405 -8.800540 -6.677094 -3.790728 -11.445101 34.566104 0.449959 -1.159736 -3.798669 -1.453752 -1.510948 -3.773810 0.671579 0.847621 6.875666 10.709263 4.485737 -22.030606 -92.816598 -62.690427 37.078642 27.014276 -24.274444 -22.459635 11.919502 -0.080308 -2.292841 -6.791673 0.010799 0.031636 74.070333 43.520915 31.496408 -33.999103 26.803331 -46.259171 -15.203464 -5.375064 -0.087892 6.955907 -0.004473 0.001616 
-5.301321 13.663393 1.430833 -25.437986 83.286415 -11.655134 -8.655439 7.082479 -49.742892 -11.643266 19.045088 57.047443 -9.041909 18.489824 8.932905 0.706185 5.094983 13.895487 -0.153476 -9.576924 -23.980869 1.676408 -24.412606 82.048007 11.598987 -9.696143 -4.733413 -3.996922 -11.731828 35.890416 0.360518 -1.002292 -3.666923 -2.087793 -1.501860 -3.494600 0.505702 0.731027 6.229163 12.183022 4.451164 -21.183375 -94.341643 -62.509413 40.309961 27.235761 -23.249650 -22.997340 11.243215 0.101264 -2.383694 -6.791887 0.013161 0.033035 75.094087 44.311311 32.754083 -34.024933 26.778892 -47.262136 -15.356625 -5.418438 -0.191306 6.952006 -0.002186 0.004246 
-4.854264 13.730706 1.477207 -27.362179 84.278252 -13.071217 -9.506630 6.171069 -49.258095 -11.925521 19.621234 58.132036 -9.539773 18.710509 8.757771 0.900921 5.676420 15.485998 0.546906 -8.852347 -25.458059 1.371804 -25.145145 83.281602 11.705841 -10.571121 -2.829583 -4.083203 -11.844710 36.463349 0.329560 -0.931470 -3.586829 -2.165661 -1.686868 -3.441371 0.360154 0.668711 5.936888 13.662994 4.332071 -20.429034 -95.373400 -62.294794 42.248045 27.493920 -22.694437 -23.486866 10.446548 0.224392 -2.417358 -6.789725 0.014266 0.033105 76.118653 45.603349 33.860197 -33.854967 26.812549 -47.693024 -15.499547 -5.439293 -0.288397 6.944231 -0.001284 0.005242 
-4.434174 13.791907 1.522553 -32.812950 85.215744 -18.129774 -10.214900 5.318141 -48.549889 -12.214114 20.033155 59.171114 -9.968595 18.941418 8.667250 1.119433 6.239465 17.007175 1.184361 -8.306093 -26.775741 0.816044 -25.535489 84.467800 11.947837 -11.298296 -1.585843 -4.118508 -11.898358 36.648221 0.335424 -0.894450 -3.542760 -1.764521 -1.900916 -3.473111 0.184864 0.601929 5.644873 15.195189 4.123057 -19.632831 -95.576731 -62.497381 42.482972 27.896071 -22.416591 -23.993004 9.645545 0.330381 -2.410460 -6.787056 0.014547 0.032345 77.225863 47.548760 34.748309 -33.840135 27.169676 -48.028266 -15.614665 -5.400388 -0.338533 6.938217 -0.001512 0.005171 
-4.034414 13.848228 1.565736 -39.149872 85.516022 -24.179087 -10.422421 5.146604 -47.415915 -12.300556 20.278437 60.163843 -10.093999 18.771808 8.608221 1.368055 6.768195 18.404848 1.467361 -7.974381 -27.587264 0.724253 -25.446680 84.905671 12.177524 -11.622194 -1.158583 -4.116699 -11.900644 36.658549 0.349219 -0.853651 -3.442012 -1.173741 -1.908075 -3.572440 -0.030036 0.509804 5.324622 16.735897 3.778218 -18.714094 -94.516587 -63.452515 41.185036 28.245010 -22.130380 -24.234225 9.093427 0.471638 -2.348414 -6.777356 0.015607 0.032831 78.043799 49.685909 35.253166 -33.713201 27.500418 -48.018253 -15.801535 -5.193674 -0.279223 6.927886 -0.001700 0.005537 
-3.661366 13.910210 1.598949 -50.529392 85.616112 -35.274521 -10.391706 5.338427 -46.184241 -12.392563 20.021564 61.035785 -10.073179 18.459727 8.551833 1.636137 7.272617 19.737225 1.825073 -7.821476 -28.519182 1.013177 -25.282914 84.573504 12.497140 -11.862557 -1.742958 -4.144643 -11.903317 36.722366 0.340052 -0.844112 -3.238814 -0.918949 -1.873168 -3.401655 -0.249744 0.363798 5.004333 18.402457 3.451485 -17.472724 -91.671722 -64.776383 38.349397 27.953866 -21.746789 -23.628969 8.700845 0.469204 -2.236674 -6.739202 0.015369 0.029470 78.336515 52.077532 35.093674 -33.234330 27.645413 -47.082903 -15.834479 -4.903497 -0.175651 6.888672 -0.001133 0.005314 
-3.304685 13.968498 1.626381 -61.906971 85.509636 -46.461094 -10.072270 5.760210 -45.294995 -11.903310 19.982696 62.088944 -9.771719 18.116114 8.607163 1.926360 7.623179 20.579563 2.206504 -7.730981 -29.596808 0.970650 -25.507723 84.210319 12.587305 -11.585270 -3.708751 -4.246624 -12.012624 36.997867 0.400546 -1.017857 -3.587399 -0.856450 -1.982412 -3.514659 -0.456545 0.238313 4.968605 20.001161 3.175308 -16.011819 -87.659997 -66.583151 34.492542 27.814742 -21.506561 -23.151215 8.555745 0.467265 -2.135951 -6.673116 0.014074 0.022618 78.149647 54.684560 34.456236 -32.446744 28.010256 -45.499705 -15.816386 -4.566788 0.011118 6.820899 0.000265 0.004489 
-2.961126 14.028904 1.650556 -71.269341 85.145607 -55.439491 -9.707394 6.036649 -44.571103 -11.160763 19.659812 62.700288 -9.372028 17.594506 8.575792 2.182660 7.993695 20.886747 2.995039 -7.526464 -31.348973 0.446114 -25.321354 82.738377 12.363267 -10.974696 -6.069494 -4.177850 -11.866016 36.794640 0.480663 -1.129455 -3.934895 -0.660421 -1.887937 -3.513328 -0.782751 0.320948 6.172601 21.093335 3.142682 -14.355907 -82.897571 -65.956541 30.021572 26.767981 -21.587208 -21.764711 8.651462 0.506059 -2.075959 -6.641349 0.013243 0.019835 77.714113 54.528022 33.990601 -31.475621 28.367882 -42.941374 -15.334586 -4.090554 0.154846 6.787446 0.002226 0.004751 
